<svg xmlns="http://www.w3.org/2000/svg" viewBox="0 0 64 64" role="img" aria-label="BBU icon">
  <defs>
    <linearGradient id="g" x1="0" y1="0" x2="1" y2="1">
      <stop offset="0" stop-color="#264637" />
      <stop offset="1" stop-color="#5d7d68" />
    </linearGradient>
  </defs>
  <rect x="4" y="4" width="56" height="56" rx="16" fill="url(#g)" />
  <path d="M18 22h11c6 0 10 3 10 8 0 3-2 6-5 7 4 1 7 4 7 8 0 6-5 9-12 9H18V22Zm10 12c3 0 5-1 5-4s-2-4-5-4h-4v8h4Zm1 16c4 0 6-2 6-5s-2-5-6-5h-5v10h5Z" fill="#f7f4ef"/>
  <rect x="43" y="15" width="8" height="8" rx="2" fill="#a6bb73"/>
</svg>
